<svg xmlns="http://www.w3.org/2000/svg" viewBox="0 0 220.76 184.75"><defs><style>.cls-1{opacity:0.26;}.cls-2{fill:#040505;}.cls-3{fill:#f297a8;}</style></defs><g id="Layer_2" data-name="Layer 2"><g id="Layer_1-2" data-name="Layer 1"><g id="Group_4" data-name="Group 4" class="cls-1"><rect id="Rectangle_1" data-name="Rectangle 1" class="cls-2" x="80.74" width="58.25" height="11.39"/><rect id="Rectangle_2" data-name="Rectangle 2" class="cls-2" x="69.54" y="11.39" width="80.21" height="11.39"/><rect id="Rectangle_3" data-name="Rectangle 3" class="cls-2" x="58.03" y="22.78" width="46.35" height="11.39"/><rect id="Rectangle_4" data-name="Rectangle 4" class="cls-2" x="115.82" y="22.78" width="46.35" height="11.39"/><rect id="Rectangle_5" data-name="Rectangle 5" class="cls-2" x="46.67" y="34.16" width="11.92" height="11.92"/><rect id="Rectangle_6" data-name="Rectangle 6" class="cls-2" x="46.67" y="150.37" width="11.92" height="11.92"/><rect id="Rectangle_7" data-name="Rectangle 7" class="cls-2" x="22.82" y="69.38" width="11.92" height="11.92"/><rect id="Rectangle_8" data-name="Rectangle 8" class="cls-2" x="22.82" y="93.23" width="11.92" height="11.92"/><rect id="Rectangle_9" data-name="Rectangle 9" class="cls-2" y="93.23" width="11.92" height="11.92"/><rect id="Rectangle_10" data-name="Rectangle 10" class="cls-2" y="105.16" width="11.92" height="11.92"/><rect id="Rectangle_11" data-name="Rectangle 11" class="cls-2" x="22.82" y="105.16" width="11.92" height="11.92"/><rect id="Rectangle_12" data-name="Rectangle 12" class="cls-2" x="11.93" y="81.3" width="22.82" height="11.92"/><rect id="Rectangle_13" data-name="Rectangle 13" class="cls-2" x="186.02" y="81.3" width="22.82" height="11.92"/><rect id="Rectangle_14" data-name="Rectangle 14" class="cls-2" x="11.93" y="117.08" width="22.82" height="11.92"/><rect id="Rectangle_15" data-name="Rectangle 15" class="cls-2" x="58.13" y="162.3" width="22.82" height="11.92"/><rect id="Rectangle_16" data-name="Rectangle 16" class="cls-2" x="139.51" y="162.3" width="22.82" height="11.92"/><rect id="Rectangle_17" data-name="Rectangle 17" class="cls-2" x="34.75" y="46.09" width="11.92" height="23.28"/><rect id="Rectangle_18" data-name="Rectangle 18" class="cls-2" x="69.54" y="103.4" width="11.92" height="23.28"/><rect id="Rectangle_19" data-name="Rectangle 19" class="cls-2" x="138.99" y="103.4" width="11.92" height="23.28"/><rect id="Rectangle_20" data-name="Rectangle 20" class="cls-2" x="186.02" y="58.02" width="11.92" height="23.28"/><rect id="Rectangle_21" data-name="Rectangle 21" class="cls-2" x="186.02" y="93.23" width="11.92" height="33.86"/><rect id="Rectangle_22" data-name="Rectangle 22" class="cls-2" x="208.84" y="91.76" width="11.92" height="23.28"/><rect id="Rectangle_23" data-name="Rectangle 23" class="cls-2" x="174.09" y="127.09" width="11.92" height="23.28"/><rect id="Rectangle_24" data-name="Rectangle 24" class="cls-2" x="34.75" y="127.09" width="11.92" height="23.28"/><rect id="Rectangle_25" data-name="Rectangle 25" class="cls-2" x="138.99" y="34.16" width="11.92" height="11.92"/><rect id="Rectangle_26" data-name="Rectangle 26" class="cls-2" x="162.17" y="34.16" width="11.92" height="11.92"/><rect id="Rectangle_27" data-name="Rectangle 27" class="cls-2" x="174.09" y="46.09" width="11.92" height="11.92"/><rect id="Rectangle_28" data-name="Rectangle 28" class="cls-2" x="162.17" y="150.37" width="11.92" height="11.92"/><rect id="Rectangle_29" data-name="Rectangle 29" class="cls-2" x="197.43" y="115.04" width="11.92" height="11.92"/><rect id="Rectangle_30" data-name="Rectangle 30" class="cls-2" x="80.74" y="34.16" width="35.08" height="11.92"/><rect id="Rectangle_31" data-name="Rectangle 31" class="cls-3" x="92.11" y="126.97" width="35.08" height="11.92"/><rect id="Rectangle_32" data-name="Rectangle 32" class="cls-3" x="103.88" y="149.9" width="11.92" height="11.92"/><rect id="Rectangle_33" data-name="Rectangle 33" class="cls-3" x="92.69" y="160.9" width="11.92" height="11.92"/><rect id="Rectangle_34" data-name="Rectangle 34" class="cls-3" x="115.8" y="160.9" width="11.92" height="11.92"/><rect id="Rectangle_35" data-name="Rectangle 35" class="cls-3" x="92.69" y="172.82" width="35.08" height="11.92"/><rect id="Rectangle_36" data-name="Rectangle 36" class="cls-3" x="80.95" y="138.8" width="11.92" height="35.08"/><rect id="Rectangle_37" data-name="Rectangle 37" class="cls-3" x="127.19" y="138.8" width="11.92" height="35.08"/><rect id="Rectangle_38" data-name="Rectangle 38" class="cls-2" x="92.33" y="46.09" width="46.67" height="11.92"/></g></g></g></svg>