<svg xmlns="http://www.w3.org/2000/svg" width="78.661" height="65.827" viewBox="0 0 78.661 65.827">
  <g id="Group_4" data-name="Group 4" opacity="0.262">
    <rect id="Rectangle_1" data-name="Rectangle 1" width="20.756" height="4.058" transform="translate(28.769 0)" fill="#040505"/>
    <rect id="Rectangle_2" data-name="Rectangle 2" width="28.579" height="4.058" transform="translate(24.778 4.058)" fill="#040505"/>
    <rect id="Rectangle_3" data-name="Rectangle 3" width="16.513" height="4.058" transform="translate(20.674 8.115)" fill="#040505"/>
    <rect id="Rectangle_4" data-name="Rectangle 4" width="16.513" height="4.058" transform="translate(41.269 8.115)" fill="#040505"/>
    <rect id="Rectangle_5" data-name="Rectangle 5" width="4.249" height="4.249" transform="translate(16.629 12.173)" fill="#040505"/>
    <rect id="Rectangle_6" data-name="Rectangle 6" width="4.249" height="4.249" transform="translate(16.629 53.58)" fill="#040505"/>
    <rect id="Rectangle_7" data-name="Rectangle 7" width="4.249" height="4.249" transform="translate(8.13 24.719)" fill="#040505"/>
    <rect id="Rectangle_8" data-name="Rectangle 8" width="4.249" height="4.249" transform="translate(8.13 33.218)" fill="#040505"/>
    <rect id="Rectangle_9" data-name="Rectangle 9" width="4.249" height="4.249" transform="translate(0 33.218)" fill="#040505"/>
    <rect id="Rectangle_10" data-name="Rectangle 10" width="4.249" height="4.249" transform="translate(0 37.467)" fill="#040505"/>
    <rect id="Rectangle_11" data-name="Rectangle 11" width="4.249" height="4.249" transform="translate(8.13 37.467)" fill="#040505"/>
    <rect id="Rectangle_12" data-name="Rectangle 12" width="8.13" height="4.249" transform="translate(4.249 28.968)" fill="#040505"/>
    <rect id="Rectangle_13" data-name="Rectangle 13" width="8.13" height="4.249" transform="translate(66.281 28.968)" fill="#040505"/>
    <rect id="Rectangle_14" data-name="Rectangle 14" width="8.13" height="4.249" transform="translate(4.249 41.717)" fill="#040505"/>
    <rect id="Rectangle_15" data-name="Rectangle 15" width="8.13" height="4.249" transform="translate(20.713 57.829)" fill="#040505"/>
    <rect id="Rectangle_16" data-name="Rectangle 16" width="8.13" height="4.249" transform="translate(49.71 57.829)" fill="#040505"/>
    <rect id="Rectangle_17" data-name="Rectangle 17" width="4.249" height="8.296" transform="translate(12.38 16.422)" fill="#040505"/>
    <rect id="Rectangle_18" data-name="Rectangle 18" width="4.249" height="8.296" transform="translate(24.778 36.843)" fill="#040505"/>
    <rect id="Rectangle_19" data-name="Rectangle 19" width="4.249" height="8.296" transform="translate(49.526 36.843)" fill="#040505"/>
    <rect id="Rectangle_20" data-name="Rectangle 20" width="4.249" height="8.296" transform="translate(66.281 20.672)" fill="#040505"/>
    <rect id="Rectangle_21" data-name="Rectangle 21" width="4.249" height="12.066" transform="translate(66.281 33.218)" fill="#040505"/>
    <rect id="Rectangle_22" data-name="Rectangle 22" width="4.249" height="8.296" transform="translate(74.411 32.695)" fill="#040505"/>
    <rect id="Rectangle_23" data-name="Rectangle 23" width="4.249" height="8.296" transform="translate(62.032 45.284)" fill="#040505"/>
    <rect id="Rectangle_24" data-name="Rectangle 24" width="4.249" height="8.296" transform="translate(12.38 45.284)" fill="#040505"/>
    <rect id="Rectangle_25" data-name="Rectangle 25" width="4.249" height="4.249" transform="translate(49.526 12.173)" fill="#040505"/>
    <rect id="Rectangle_26" data-name="Rectangle 26" width="4.249" height="4.249" transform="translate(57.782 12.173)" fill="#040505"/>
    <rect id="Rectangle_27" data-name="Rectangle 27" width="4.249" height="4.249" transform="translate(62.032 16.422)" fill="#040505"/>
    <rect id="Rectangle_28" data-name="Rectangle 28" width="4.249" height="4.249" transform="translate(57.782 53.58)" fill="#040505"/>
    <rect id="Rectangle_29" data-name="Rectangle 29" width="4.249" height="4.249" transform="translate(70.346 40.991)" fill="#040505"/>
    <rect id="Rectangle_30" data-name="Rectangle 30" width="12.5" height="4.249" transform="translate(28.769 12.173)" fill="#040505"/>
    <rect id="Rectangle_31" data-name="Rectangle 31" width="12.5" height="4.249" transform="translate(32.818 45.241)" fill="#f297a8"/>
    <rect id="Rectangle_32" data-name="Rectangle 32" width="4.249" height="4.249" transform="translate(37.013 53.409)" fill="#f297a8"/>
    <rect id="Rectangle_33" data-name="Rectangle 33" width="4.249" height="4.249" transform="translate(33.027 57.328)" fill="#f297a8"/>
    <rect id="Rectangle_34" data-name="Rectangle 34" width="4.249" height="4.249" transform="translate(41.262 57.328)" fill="#f297a8"/>
    <rect id="Rectangle_35" data-name="Rectangle 35" width="12.5" height="4.249" transform="translate(33.027 61.578)" fill="#f297a8"/>
    <rect id="Rectangle_36" data-name="Rectangle 36" width="12.5" height="4.249" transform="translate(33.093 49.455) rotate(90)" fill="#f297a8"/>
    <rect id="Rectangle_37" data-name="Rectangle 37" width="12.5" height="4.249" transform="translate(49.567 49.455) rotate(90)" fill="#f297a8"/>
    <rect id="Rectangle_38" data-name="Rectangle 38" width="16.628" height="4.249" transform="translate(32.898 16.422)" fill="#040505"/>
  </g>
</svg>
