<svg id="Icon_ionic-ios-chatbubbles" data-name="Icon ionic-ios-chatbubbles" xmlns="http://www.w3.org/2000/svg" width="29.752" height="29.751" viewBox="0 0 29.752 29.751">
  <path id="Path_1" data-name="Path 1" d="M30.684,22.871A1.733,1.733,0,0,1,30.92,22a2.408,2.408,0,0,1,.15-.222,11.588,11.588,0,0,0,1.974-6.458A12.166,12.166,0,0,0,20.621,3.375a12.337,12.337,0,0,0-12.18,9.5,11.493,11.493,0,0,0-.265,2.446,12.132,12.132,0,0,0,12.23,12.094,14.729,14.729,0,0,0,3.376-.551c.808-.222,1.609-.515,1.817-.594a1.891,1.891,0,0,1,.665-.122,1.859,1.859,0,0,1,.722.143l4.055,1.438a.967.967,0,0,0,.279.072.569.569,0,0,0,.572-.572.919.919,0,0,0-.036-.193Z" transform="translate(-3.293 -3.375)" fill="#f9f9f9"/>
  <path id="Path_2" data-name="Path 2" d="M22.721,27.85c-.257.072-.586.15-.944.229a13.2,13.2,0,0,1-2.432.322A12.132,12.132,0,0,1,7.115,16.307a13.521,13.521,0,0,1,.107-1.53c.043-.308.093-.615.164-.915.072-.322.157-.644.25-.958l-.572.508a10.643,10.643,0,0,0-3.69,8,10.525,10.525,0,0,0,1.774,5.864c.164.25.257.443.229.572s-.851,4.434-.851,4.434a.574.574,0,0,0,.193.551.583.583,0,0,0,.365.129.513.513,0,0,0,.207-.043L9.3,31.34a1.118,1.118,0,0,1,.858.014,12.037,12.037,0,0,0,4.341.858,11.232,11.232,0,0,0,8.589-3.941s.229-.315.493-.687C23.321,27.678,23.021,27.771,22.721,27.85Z" transform="translate(-3.375 -3.212)" fill="#f9f9f9"/>
</svg>
