<svg xmlns="http://www.w3.org/2000/svg" viewBox="0 0 104.68 104.69"><defs><style>.cls-1{fill:#6886c5;}</style></defs><g id="Layer_2" data-name="Layer 2"><g id="Layer_1-2" data-name="Layer 1"><g id="Icon_ionic-ios-chatbubbles" data-name="Icon ionic-ios-chatbubbles"><path id="Path_1" data-name="Path 1" class="cls-1" d="M96.37,68.6a6.11,6.11,0,0,1,.83-3.06,8.23,8.23,0,0,1,.53-.78,40.81,40.81,0,0,0,7-22.73A42.81,42.81,0,0,0,61.11,0H61A43.4,43.4,0,0,0,18.12,33.45a40.16,40.16,0,0,0-.93,8.6A42.68,42.68,0,0,0,60,84.61h.22a52.46,52.46,0,0,0,11.87-1.94c2.85-.78,5.66-1.81,6.4-2.09a6.65,6.65,0,0,1,2.34-.43,6.72,6.72,0,0,1,2.54.5l14.25,5.06a3.45,3.45,0,0,0,1,.26,2,2,0,0,0,2-2v0a3.14,3.14,0,0,0-.13-.68Z"/><path id="Path_2" data-name="Path 2" class="cls-1" d="M68.07,86.7c-.91.25-2.07.53-3.31.8a46.58,46.58,0,0,1-8.56,1.13,42.69,42.69,0,0,1-43-42.33v-.22a48.29,48.29,0,0,1,.38-5.37c.15-1.08.33-2.16.58-3.22s.55-2.27.88-3.37L13,35.9A37.47,37.47,0,0,0,0,64.06,37,37,0,0,0,6.24,84.69c.58.88.91,1.56.8,2s-3,15.58-3,15.58a2,2,0,0,0,2,2.4,1.84,1.84,0,0,0,.73-.16L20.86,99a4,4,0,0,1,3,0,42.3,42.3,0,0,0,15.27,3A39.5,39.5,0,0,0,69.38,88.17s.8-1.1,1.73-2.41C70.19,86.09,69.12,86.42,68.07,86.7Z"/></g></g></g></svg>