<svg id="Icon_ionic-ios-chatbubbles" data-name="Icon ionic-ios-chatbubbles" xmlns="http://www.w3.org/2000/svg" width="37.298" height="37.298" viewBox="0 0 37.298 37.298">
  <path id="Path_1" data-name="Path 1" d="M36.393,27.816a2.172,2.172,0,0,1,.3-1.094,3.02,3.02,0,0,1,.188-.278,14.527,14.527,0,0,0,2.475-8.1C39.378,10.081,32.4,3.375,23.778,3.375A15.466,15.466,0,0,0,8.509,15.29a14.408,14.408,0,0,0-.332,3.066A15.209,15.209,0,0,0,23.509,33.518a18.465,18.465,0,0,0,4.232-.69c1.013-.278,2.017-.646,2.277-.744a2.37,2.37,0,0,1,.834-.152,2.331,2.331,0,0,1,.906.179l5.084,1.8a1.212,1.212,0,0,0,.35.09.714.714,0,0,0,.717-.717,1.152,1.152,0,0,0-.045-.242Z" transform="translate(-2.054 -3.375)" fill="#6886c5"/>
  <path id="Path_2" data-name="Path 2" d="M27.627,31.641c-.323.09-.735.188-1.183.287a16.548,16.548,0,0,1-3.048.4A15.209,15.209,0,0,1,8.064,17.17,16.951,16.951,0,0,1,8.2,15.251c.054-.386.117-.771.206-1.148.09-.4.2-.807.314-1.2L8,13.539A13.343,13.343,0,0,0,3.375,23.572,13.194,13.194,0,0,0,5.6,30.924c.206.314.323.556.287.717S4.818,37.2,4.818,37.2a.719.719,0,0,0,.242.69.73.73,0,0,0,.457.161A.643.643,0,0,0,5.778,38l5.03-1.981a1.4,1.4,0,0,1,1.076.018,15.09,15.09,0,0,0,5.442,1.076,14.081,14.081,0,0,0,10.768-4.94s.287-.394.619-.861C28.381,31.426,28,31.542,27.627,31.641Z" transform="translate(-3.375 -0.754)" fill="#6886c5"/>
</svg>
