<svg xmlns="http://www.w3.org/2000/svg" viewBox="0 0 95.88 95.86"><defs><style>.cls-1{fill:#707070;}</style></defs><g id="Layer_2" data-name="Layer 2"><g id="Layer_1-2" data-name="Layer 1"><path id="Icon_metro-cross" data-name="Icon metro-cross" class="cls-1" d="M95,77h0L65.91,47.93,95,18.85h0a3,3,0,0,0,0-4.23L81.25.87A3,3,0,0,0,77,.87h0L48,30,18.85.87h0a3,3,0,0,0-4.23,0L.87,14.61a3,3,0,0,0,0,4.24h0L30,47.93.87,77h0a3,3,0,0,0,0,4.24L14.61,95a3,3,0,0,0,4.24,0h0L48,65.9,77,95h0a3,3,0,0,0,4.23,0L95,81.25A3,3,0,0,0,95,77Z"/></g></g></svg>